/* XPM */
static char *ff078183a8484c91a15be2fbdbeebd9a0MGctYbSb8RFGc77[] = {
/* columns rows colors chars-per-pixel */
"32 32 8 1 ",
"  c #1B2224",
". c #161C1E",
"X c #101619",
"o c #22282A",
"O c #2A3031",
"+ c #0B1013",
"@ c #373C3C",
"# c #4C4E4C",
/* pixels */
"@##########.#####@@@@Oo#@#@@@OOo",
"@@@@@@@@@@O @@@OOOOOOo.@OOOoooo ",
"OOO@@@@@@OOXOOOOooooo .OOoooooo.",
"oOOOO@OOoooXoOOOOoooo.Xoooooo  X",
"++XX++X+X.X++X.XX.XX+++++X+++X++",
"@OO@OOXO@@O@OOOO.+OOoOOo ...X+ .",
"@@@@@@ @#@@@@@@@oO#@@@OOOOooo.O ",
"OOOOOoXOOoOOOOOOX OoOOoooo   X  ",
"OOOooOXOOOOOOOo.. Oooooooo   X  ",
"...XX++X..XXX.X.X+XX..XXXXXX++XX",
"oo +.X ooX Oo oooooo.X ..XX+  ..",
"OOO.oOOOO O@OOOOOOOO  oo  . O   ",
"   XOOooO. ooo oo   .. .. .. ...",
"o  Xooooo. oooo o  oX. .  XX ...",
"XX++XXX..++XXX+XXXXX++X+XX++X++X",
" + OoooooooX O ooo  ooo..o  .+.X",
"o.OooOOOooo.O@OOoooOOoO. O    o ",
" X     . . X.o oo      X.  .....",
" X         X Oo        XX . ....",
"+++++++++++++..X+X.XXXX++XXXX+X+",
"oooooo+     o..oo +  .. .X . ...",
"OOOOOO.oooooooOOOO.oo  o. o oo  ",
"ooooooX.      oo  . ....XX .  ..",
"ooooooX.     .    X.....XX.X....",
"....X.++XX...X.XXX+XXXXX++XX++XX",
".XX+.X.XXXXXX++ .....XX+.XXXXX++",
"ooo.OOOoooooO  @oooooo .Ooo    .",
"  .X      .  X. .     .X ......X",
"  .X   . ..  .X      ..X ......X",
"XX++XX+XXXXXX++XXXXXXX++XXXXXXX+",
". . ......X+.........XX ..XXXXXX",
"o        ..X         X.o     ..X"
};
